<svg width="14" height="15" viewBox="0 0 14 15" fill="none" xmlns="http://www.w3.org/2000/svg">
<path d="M11.7 0.203125C11.5143 0.203125 11.3363 0.276875 11.205 0.40815C11.0738 0.539426 11 0.717474 11 0.903125V6.05312L1.05 0.310125C0.943676 0.248739 0.823077 0.216396 0.700305 0.216342C0.577532 0.216289 0.456905 0.248526 0.350527 0.30982C0.24415 0.371114 0.155764 0.459308 0.0942387 0.565552C0.0327138 0.671796 0.000213916 0.792353 4.37454e-07 0.915125V13.4901C-0.000136989 13.6131 0.0321073 13.7339 0.093489 13.8404C0.154871 13.9469 0.243225 14.0354 0.349661 14.0969C0.456098 14.1585 0.576863 14.1909 0.699805 14.1909C0.822747 14.1909 0.94353 14.1586 1.05 14.0971L11 8.35213V13.5031C11 13.6888 11.0738 13.8668 11.205 13.9981C11.3363 14.1294 11.5143 14.2031 11.7 14.2031H13.3C13.4857 14.2031 13.6637 14.1294 13.795 13.9981C13.9262 13.8668 14 13.6888 14 13.5031V0.903125C14 0.717474 13.9262 0.539426 13.795 0.40815C13.6637 0.276875 13.4857 0.203125 13.3 0.203125H11.7Z" fill="white" fill-opacity="0.698"/>
</svg>
