<svg width="14" height="15" viewBox="0 0 14 15" fill="none" xmlns="http://www.w3.org/2000/svg">
<path d="M2.3 0.203125C2.48565 0.203125 2.6637 0.276875 2.79497 0.40815C2.92625 0.539426 3 0.717474 3 0.903125V6.05312L12.95 0.309125C13.0564 0.247696 13.1771 0.215352 13.2999 0.215343C13.4228 0.215333 13.5435 0.247659 13.6499 0.309071C13.7563 0.370483 13.8447 0.458818 13.9061 0.565201C13.9676 0.671584 14 0.792268 14 0.915125V13.4901C14.0001 13.6131 13.9679 13.7339 13.9065 13.8404C13.8451 13.9469 13.7568 14.0354 13.6503 14.0969C13.5439 14.1585 13.4231 14.1909 13.3002 14.1909C13.1773 14.1909 13.0565 14.1586 12.95 14.0971L3 8.35213V13.5031C3 13.6888 2.92625 13.8668 2.79497 13.9981C2.6637 14.1294 2.48565 14.2031 2.3 14.2031H0.7C0.514349 14.2031 0.336301 14.1294 0.205025 13.9981C0.0737497 13.8668 0 13.6888 0 13.5031V0.903125C0 0.717474 0.0737497 0.539426 0.205025 0.40815C0.336301 0.276875 0.514349 0.203125 0.7 0.203125H2.3Z" fill="white" fill-opacity="0.698"/>
</svg>
