<svg width="470" height="470" viewBox="0 0 470 470" fill="none" xmlns="http://www.w3.org/2000/svg">
<g filter="url(#filter0_f_0_5)">
<rect x="24" y="24" width="422" height="422" rx="95" fill="white" fill-opacity="0.24"/>
</g>
<rect x="36" y="34" width="422" height="422" rx="95" fill="#2FCC5C"/>
<g filter="url(#filter1_f_0_5)">
<rect x="50" y="48" width="394" height="394" rx="95" fill="url(#paint0_linear_0_5)" fill-opacity="0.7"/>
</g>
<g filter="url(#filter2_f_0_5)">
<path fill-rule="evenodd" clip-rule="evenodd" d="M139 42C86.5329 42 44 84.533 44 137V347C44 399.467 86.533 442 139 442H150C97.533 442 55 399.467 55 347V151C55 98.533 97.5329 56 150 56H349C401.467 56 444 98.5329 444 151V137C444 84.5329 401.467 42 349 42H139Z" fill="#26A047"/>
</g>
<g filter="url(#filter3_i_0_5)">
<path fill-rule="evenodd" clip-rule="evenodd" d="M234.864 198.615C200.024 197.617 169.074 203.294 151.672 208.641C145.073 210.669 138.079 206.964 136.051 200.365C134.024 193.766 137.729 186.772 144.328 184.744C164.276 178.614 197.946 172.548 235.579 173.625C273.209 174.702 315.815 182.956 352.715 206.457C358.538 210.165 360.252 217.892 356.543 223.715C352.835 229.538 345.108 231.252 339.285 227.543C307.425 207.252 269.706 199.612 234.864 198.615ZM229.196 249.599C200.077 248.738 174.228 253.643 159.781 258.228C153.201 260.316 146.174 256.674 144.086 250.094C141.997 243.514 145.639 236.487 152.219 234.399C169.275 228.986 197.928 223.664 229.935 224.61C261.951 225.556 298.325 232.811 329.869 253.556C335.637 257.35 337.237 265.101 333.444 270.869C329.65 276.637 321.899 278.237 316.131 274.444C289.681 257.048 258.306 250.46 229.196 249.599ZM166.129 304.776C178.543 300.687 200.717 296.322 225.686 297.088C250.636 297.854 277.591 303.713 300.362 319.259C304.923 322.373 311.145 321.2 314.259 316.638C317.373 312.077 316.2 305.855 311.638 302.741C284.749 284.383 253.691 277.938 226.3 277.098C198.928 276.258 174.432 280.984 159.871 285.78C154.626 287.508 151.774 293.162 153.502 298.407C155.23 303.653 160.883 306.504 166.129 304.776Z" fill="url(#paint1_linear_0_5)" fill-opacity="0.7"/>
</g>
<g filter="url(#filter4_d_0_5)">
<path fill-rule="evenodd" clip-rule="evenodd" d="M247 87C159.739 87 89 157.739 89 245C89 332.261 159.739 403 247 403C334.261 403 405 332.261 405 245C405 157.739 334.261 87 247 87ZM151.672 207.641C169.074 202.294 200.024 196.617 234.864 197.615C269.706 198.612 307.425 206.252 339.285 226.543C345.108 230.252 352.835 228.538 356.543 222.715C360.252 216.892 358.538 209.165 352.715 205.457C315.815 181.956 273.209 173.702 235.579 172.625C197.946 171.548 164.276 177.614 144.328 183.744C137.729 185.772 134.024 192.766 136.051 199.365C138.079 205.964 145.073 209.669 151.672 207.641ZM229.196 248.599C200.077 247.738 174.228 252.643 159.781 257.228C153.201 259.316 146.174 255.674 144.086 249.094C141.997 242.514 145.639 235.487 152.219 233.399C169.275 227.986 197.928 222.664 229.935 223.61C261.951 224.557 298.325 231.811 329.869 252.556C335.637 256.35 337.237 264.101 333.444 269.869C329.65 275.637 321.899 277.237 316.131 273.444C289.681 256.048 258.306 249.46 229.196 248.599ZM166.129 303.776C178.543 299.687 200.717 295.322 225.686 296.088C250.636 296.854 277.591 302.713 300.362 318.259C304.923 321.373 311.145 320.2 314.259 315.638C317.373 311.077 316.2 304.855 311.638 301.741C284.749 283.383 253.691 276.938 226.3 276.098C198.928 275.258 174.432 279.984 159.871 284.78C154.626 286.508 151.774 292.162 153.502 297.407C155.23 302.653 160.883 305.504 166.129 303.776Z" fill="#F1ECE6"/>
</g>
<g filter="url(#filter5_f_0_5)">
<path fill-rule="evenodd" clip-rule="evenodd" d="M249 97C164.5 97 96 165.5 96 250C96 334.5 164.5 403 249 403C249.815 403 250.628 402.994 251.44 402.981C170.722 401.698 105.684 335.865 105.684 254.842C105.684 173.016 172.016 106.684 253.842 106.684C334.865 106.684 400.698 171.722 401.981 252.44C401.994 251.628 402 250.815 402 250C402 165.5 333.5 97 249 97Z" fill="black" fill-opacity="0.1"/>
</g>
<g filter="url(#filter6_f_0_5)">
<path fill-rule="evenodd" clip-rule="evenodd" d="M360.997 336.266C412.733 273.823 404.054 181.263 341.611 129.527C328.551 118.706 314.172 110.528 299.126 104.932C308.636 109.692 317.758 115.601 326.298 122.677C386.765 172.776 395.169 262.406 345.071 322.873C294.972 383.339 205.341 391.744 144.874 341.645C135.624 333.981 127.592 325.391 120.802 316.122C129.279 330.783 140.455 344.215 154.259 355.652C216.701 407.388 309.261 398.708 360.997 336.266Z" fill="black" fill-opacity="0.22"/>
</g>
<defs>
<filter id="filter0_f_0_5" x="0" y="0" width="470" height="470" filterUnits="userSpaceOnUse" color-interpolation-filters="sRGB">
<feFlood flood-opacity="0" result="BackgroundImageFix"/>
<feBlend mode="normal" in="SourceGraphic" in2="BackgroundImageFix" result="shape"/>
<feGaussianBlur stdDeviation="12" result="effect1_foregroundBlur_0_5"/>
</filter>
<filter id="filter1_f_0_5" x="34" y="32" width="426" height="426" filterUnits="userSpaceOnUse" color-interpolation-filters="sRGB">
<feFlood flood-opacity="0" result="BackgroundImageFix"/>
<feBlend mode="normal" in="SourceGraphic" in2="BackgroundImageFix" result="shape"/>
<feGaussianBlur stdDeviation="8" result="effect1_foregroundBlur_0_5"/>
</filter>
<filter id="filter2_f_0_5" x="25" y="23" width="438" height="438" filterUnits="userSpaceOnUse" color-interpolation-filters="sRGB">
<feFlood flood-opacity="0" result="BackgroundImageFix"/>
<feBlend mode="normal" in="SourceGraphic" in2="BackgroundImageFix" result="shape"/>
<feGaussianBlur stdDeviation="9.5" result="effect1_foregroundBlur_0_5"/>
</filter>
<filter id="filter3_i_0_5" x="135.497" y="173.5" width="223.005" height="151.501" filterUnits="userSpaceOnUse" color-interpolation-filters="sRGB">
<feFlood flood-opacity="0" result="BackgroundImageFix"/>
<feBlend mode="normal" in="SourceGraphic" in2="BackgroundImageFix" result="shape"/>
<feColorMatrix in="SourceAlpha" type="matrix" values="0 0 0 0 0 0 0 0 0 0 0 0 0 0 0 0 0 0 127 0" result="hardAlpha"/>
<feOffset dy="4"/>
<feGaussianBlur stdDeviation="7"/>
<feComposite in2="hardAlpha" operator="arithmetic" k2="-1" k3="1"/>
<feColorMatrix type="matrix" values="0 0 0 0 0 0 0 0 0 0 0 0 0 0 0 0 0 0 0.16 0"/>
<feBlend mode="normal" in2="shape" result="effect1_innerShadow_0_5"/>
</filter>
<filter id="filter4_d_0_5" x="64" y="62" width="396" height="396" filterUnits="userSpaceOnUse" color-interpolation-filters="sRGB">
<feFlood flood-opacity="0" result="BackgroundImageFix"/>
<feColorMatrix in="SourceAlpha" type="matrix" values="0 0 0 0 0 0 0 0 0 0 0 0 0 0 0 0 0 0 127 0" result="hardAlpha"/>
<feOffset dx="15" dy="15"/>
<feGaussianBlur stdDeviation="20"/>
<feColorMatrix type="matrix" values="0 0 0 0 0 0 0 0 0 0 0 0 0 0 0 0 0 0 0.31 0"/>
<feBlend mode="normal" in2="BackgroundImageFix" result="effect1_dropShadow_0_5"/>
<feBlend mode="normal" in="SourceGraphic" in2="effect1_dropShadow_0_5" result="shape"/>
</filter>
<filter id="filter5_f_0_5" x="88" y="89" width="322" height="322" filterUnits="userSpaceOnUse" color-interpolation-filters="sRGB">
<feFlood flood-opacity="0" result="BackgroundImageFix"/>
<feBlend mode="normal" in="SourceGraphic" in2="BackgroundImageFix" result="shape"/>
<feGaussianBlur stdDeviation="4" result="effect1_foregroundBlur_0_5"/>
</filter>
<filter id="filter6_f_0_5" x="101.802" y="85.9321" width="311.965" height="322.489" filterUnits="userSpaceOnUse" color-interpolation-filters="sRGB">
<feFlood flood-opacity="0" result="BackgroundImageFix"/>
<feBlend mode="normal" in="SourceGraphic" in2="BackgroundImageFix" result="shape"/>
<feGaussianBlur stdDeviation="9.5" result="effect1_foregroundBlur_0_5"/>
</filter>
<linearGradient id="paint0_linear_0_5" x1="404.5" y1="404" x2="233" y2="257" gradientUnits="userSpaceOnUse">
<stop stop-color="#18661B"/>
<stop offset="1" stop-color="#2FCC5C" stop-opacity="0"/>
</linearGradient>
<linearGradient id="paint1_linear_0_5" x1="150.5" y1="247" x2="324.5" y2="247" gradientUnits="userSpaceOnUse">
<stop stop-color="#0B7432"/>
<stop offset="1" stop-color="#45BD72"/>
</linearGradient>
</defs>
</svg>
