<svg width="30" height="21" viewBox="0 0 30 21" fill="none" xmlns="http://www.w3.org/2000/svg">
<g clip-path="url(#clip0_2_1038)">
<path d="M25.7917 1.35315H3.31022C1.97739 1.35315 0.901489 2.42515 0.901489 3.75315V18.1532C0.901489 19.4811 1.97739 20.5532 3.31022 20.5532H25.7917C27.1245 20.5532 28.2004 19.4811 28.2004 18.1532V3.75315C28.2004 2.42515 27.1245 1.35315 25.7917 1.35315Z" fill="url(#paint0_radial_2_1038)"/>
<path d="M26.1931 1.75313C27.0763 1.75313 27.7989 2.47313 27.7989 3.35313V18.5531C27.7989 19.4331 27.0763 20.1531 26.1931 20.1531H2.90873C2.02553 20.1531 1.30291 19.4331 1.30291 18.5531V3.35313C1.30291 2.47313 2.02553 1.75313 2.90873 1.75313H26.1931ZM26.1931 0.953125H2.90873C1.5759 0.953125 0.5 2.02513 0.5 3.35313V18.5531C0.5 19.8811 1.5759 20.9531 2.90873 20.9531H26.1931C27.5259 20.9531 28.6018 19.8811 28.6018 18.5531V3.35313C28.6018 2.02513 27.5259 0.953125 26.1931 0.953125Z" fill="#E7E7E7"/>
<path d="M6.07214 11.2331H7.45315L6.76265 9.5531L6.07214 11.2331Z" fill="white"/>
<path d="M16.8873 9.71307V10.4811H19.1194V11.3451H16.8873V12.1931H19.3844L20.5406 10.9371L19.4406 9.71307H16.8873Z" fill="white"/>
<path d="M25.7274 7.9931H22.0661L21.2311 8.8971L20.4522 7.9931H15.7552H15.1771H12.8888L12.2224 9.5131L11.5399 7.9931H8.41663V8.6971L8.07138 7.9931H5.42981L2.86853 13.8971H5.92761L6.32104 12.9531H7.18818L7.57358 13.8971H10.9779V13.1851L11.283 13.9131H13.0494L13.3545 13.1851V13.9131H15.137H20.3318L21.1909 12.9931L22.0099 13.9131H25.6069L22.9573 10.9771L25.7274 7.9931ZM15.153 13.0571H14.1173V9.7371L12.648 13.0571H11.7407L10.2714 9.7371V13.0571H8.20788L7.82248 12.1131H5.7028L5.30937 13.0571H4.20136L6.01593 8.8251H7.5254L9.25166 12.8331V8.8251H10.9057L12.2385 11.6971L13.4589 8.8251H15.153V13.0571ZM23.7683 13.0731H22.4515L21.1989 11.6731L19.9063 13.0731H15.8837V8.8331H19.9705L21.223 10.2251L22.5157 8.8331H23.8485L21.8734 10.9531L23.7683 13.0731Z" fill="white"/>
</g>
<defs>
<radialGradient id="paint0_radial_2_1038" cx="0" cy="0" r="1" gradientUnits="userSpaceOnUse" gradientTransform="translate(319.578 51.4723) scale(2618.71 2618.71)">
<stop stop-color="#9DD5F6"/>
<stop offset="0.0711" stop-color="#98D3F5"/>
<stop offset="0.1575" stop-color="#89CEF3"/>
<stop offset="0.2516" stop-color="#70C6EF"/>
<stop offset="0.3514" stop-color="#4EBBEA"/>
<stop offset="0.4546" stop-color="#23ADE3"/>
<stop offset="0.5" stop-color="#0DA6E0"/>
<stop offset="1" stop-color="#2E77BC"/>
</radialGradient>
<clipPath id="clip0_2_1038">
<rect width="29" height="20" fill="white" transform="translate(0.5 0.953125)"/>
</clipPath>
</defs>
</svg>
