<svg width="24" height="25" viewBox="0 0 24 25" fill="none" xmlns="http://www.w3.org/2000/svg">
<g clip-path="url(#clip0_2_2664)">
<path d="M13.5 2.10877C13.0439 1.84547 12.5266 1.70685 12 1.70685C11.4734 1.70685 10.9561 1.84547 10.5 2.10877L3 6.43877C2.69597 6.6143 2.4435 6.86677 2.26796 7.1708C2.09243 7.47483 2.00001 7.81971 2 8.17077V21.5938C2 21.859 2.10536 22.1133 2.29289 22.3009C2.48043 22.4884 2.73478 22.5938 3 22.5938H9C9.26522 22.5938 9.51957 22.4884 9.70711 22.3009C9.89464 22.1133 10 21.859 10 21.5938V15.5938H14V21.5938C14 21.859 14.1054 22.1133 14.2929 22.3009C14.4804 22.4884 14.7348 22.5938 15 22.5938H21C21.2652 22.5938 21.5196 22.4884 21.7071 22.3009C21.8946 22.1133 22 21.859 22 21.5938V8.17077C22 7.81971 21.9076 7.47483 21.732 7.1708C21.5565 6.86677 21.304 6.6143 21 6.43877L13.5 2.10877Z" fill="white"/>
</g>
<defs>
<clipPath id="clip0_2_2664">
<rect width="24" height="24" fill="white" transform="translate(0 0.59375)"/>
</clipPath>
</defs>
</svg>
