<svg width="24" height="25" viewBox="0 0 24 25" fill="none" xmlns="http://www.w3.org/2000/svg">
<g clip-path="url(#clip0_2_698)">
<path d="M12.5 3.34077C12.348 3.253 12.1755 3.2068 12 3.2068C11.8245 3.2068 11.652 3.253 11.5 3.34077L4 7.67077V20.0938H8.5V14.0938C8.5 13.8286 8.60536 13.5742 8.79289 13.3867C8.98043 13.1991 9.23478 13.0938 9.5 13.0938H14.5C14.7652 13.0938 15.0196 13.1991 15.2071 13.3867C15.3946 13.5742 15.5 13.8286 15.5 14.0938V20.0938H20V7.67077L12.5 3.34077ZM10.5 1.60877C10.9561 1.34547 11.4734 1.20685 12 1.20685C12.5266 1.20685 13.0439 1.34547 13.5 1.60877L21 5.93877C21.304 6.1143 21.5565 6.36677 21.732 6.6708C21.9076 6.97483 22 7.31971 22 7.67077V21.0938C22 21.359 21.8946 21.6133 21.7071 21.8009C21.5196 21.9884 21.2652 22.0938 21 22.0938H14.5C14.2348 22.0938 13.9804 21.9884 13.7929 21.8009C13.6054 21.6133 13.5 21.359 13.5 21.0938V15.0938H10.5V21.0938C10.5 21.359 10.3946 21.6133 10.2071 21.8009C10.0196 21.9884 9.76522 22.0938 9.5 22.0938H3C2.73478 22.0938 2.48043 21.9884 2.29289 21.8009C2.10536 21.6133 2 21.359 2 21.0938V7.67077C2.00001 7.31971 2.09243 6.97483 2.26796 6.6708C2.4435 6.36677 2.69597 6.1143 3 5.93877L10.5 1.60877Z" fill="#B3B3B3"/>
</g>
<defs>
<clipPath id="clip0_2_698">
<rect width="24" height="24" fill="white" transform="translate(0 0.09375)"/>
</clipPath>
</defs>
</svg>
