<svg width="24" height="25" viewBox="0 0 24 25" fill="none" xmlns="http://www.w3.org/2000/svg">
<g opacity="0.7">
<rect y="0.59375" width="24" height="24" rx="2" fill="url(#paint0_linear_2_2692)"/>
<g clip-path="url(#clip0_2_2692)">
<path d="M17.7931 9.75875C17.6635 9.1142 17.3406 8.52446 16.8673 8.06809C16.3941 7.61172 15.793 7.31039 15.1441 7.20425C14.6567 7.12654 14.1578 7.1626 13.6866 7.30962C13.2153 7.45664 12.7845 7.71063 12.4276 8.05175C12.3115 8.15976 12.1588 8.21981 12.0001 8.21981C11.8415 8.21981 11.6888 8.15976 11.5726 8.05175C10.9802 7.47873 10.1898 7.15605 9.36556 7.15079C8.54137 7.14553 7.74685 7.45809 7.14716 8.0235C6.54747 8.58891 6.18873 9.36368 6.14552 10.1868C6.10231 11.0098 6.37795 11.8179 6.91515 12.443L11.3521 17.7305C11.4316 17.825 11.5307 17.9009 11.6426 17.953C11.7544 18.0052 11.8764 18.0322 11.9998 18.0322C12.1232 18.0322 12.2451 18.0052 12.357 17.953C12.4689 17.9009 12.568 17.825 12.6474 17.7305L17.0844 12.443C17.3982 12.0788 17.625 11.648 17.7478 11.1833C17.8706 10.7185 17.8861 10.2319 17.7931 9.76025V9.75875Z" fill="white"/>
</g>
</g>
<defs>
<linearGradient id="paint0_linear_2_2692" x1="0" y1="0.59375" x2="24" y2="24.5938" gradientUnits="userSpaceOnUse">
<stop stop-color="#450AF5"/>
<stop offset="1" stop-color="#C4EFD9"/>
</linearGradient>
<clipPath id="clip0_2_2692">
<rect width="12" height="12" fill="white" transform="translate(6 6.59375)"/>
</clipPath>
</defs>
</svg>
