<svg width="24" height="25" viewBox="0 0 24 25" fill="none" xmlns="http://www.w3.org/2000/svg">
<g clip-path="url(#clip0_2_704)">
<path d="M15.356 10.6517C15.356 13.2747 13.196 15.4017 10.533 15.4017C7.86898 15.4017 5.70898 13.2747 5.70898 10.6517C5.70898 8.02873 7.86898 5.90173 10.533 5.90173C13.197 5.90173 15.356 8.02873 15.356 10.6517Z" fill="white"/>
<path d="M1.12598 10.6518C1.12598 5.51177 5.35198 1.37177 10.533 1.37177C15.713 1.37177 19.94 5.51177 19.94 10.6518C19.942 12.7725 19.2079 14.8281 17.863 16.4678L22.207 20.8118C22.3891 21.0004 22.4899 21.253 22.4877 21.5152C22.4854 21.7774 22.3802 22.0282 22.1948 22.2136C22.0094 22.399 21.7586 22.5042 21.4964 22.5064C21.2342 22.5087 20.9816 22.4079 20.793 22.2258L16.44 17.8728C14.7615 19.2092 12.6785 19.9349 10.533 19.9308C5.35298 19.9308 1.12598 15.7918 1.12598 10.6518ZM10.533 3.37177C6.42798 3.37177 3.12598 6.64576 3.12598 10.6518C3.12598 14.6578 6.42798 17.9308 10.533 17.9308C14.638 17.9308 17.94 14.6578 17.94 10.6508C17.94 6.64577 14.638 3.37177 10.533 3.37177Z" fill="white"/>
</g>
<defs>
<clipPath id="clip0_2_704">
<rect width="24" height="24" fill="white" transform="translate(0 0.09375)"/>
</clipPath>
</defs>
</svg>
