<svg width="17" height="12" viewBox="0 0 17 12" fill="none" xmlns="http://www.w3.org/2000/svg">
<path d="M16.8398 5.95432C16.8398 8.7835 14.5468 11.0682 11.7171 11.0682C8.88739 11.0682 6.58459 8.7835 6.58459 5.95432C6.58459 3.12514 8.87763 0.830688 11.7073 0.830688C14.5468 0.830688 16.8398 3.12514 16.8398 5.95432Z" fill="#F79F1A"/>
<path d="M10.5169 5.95432C10.5169 8.7835 8.22382 11.0682 5.39411 11.0682C2.5644 11.0682 0.271362 8.77377 0.271362 5.95432C0.271362 3.13486 2.5644 0.830688 5.39411 0.830688C8.22382 0.830688 10.5169 3.12514 10.5169 5.95432Z" fill="#EA001B"/>
<path d="M8.54588 1.92932C7.34569 2.86266 6.58459 4.321 6.58459 5.95434C6.58459 7.58768 7.35545 9.04601 8.54588 9.97935C9.74606 9.04601 10.5072 7.58768 10.5072 5.95434C10.5072 4.321 9.74606 2.86266 8.54588 1.92932Z" fill="#FF5F01"/>
</svg>
