<svg width="19" height="5" viewBox="0 0 19 5" fill="none" xmlns="http://www.w3.org/2000/svg">
<path d="M2.42843 4.71422C3.73023 4.71422 4.78557 3.72276 4.78557 2.49993C4.78557 1.2771 3.73023 0.285645 2.42843 0.285645C1.12664 0.285645 0.0712891 1.2771 0.0712891 2.49993C0.0712891 3.72276 1.12664 4.71422 2.42843 4.71422Z" fill="white"/>
<path d="M9.49986 4.71422C10.8017 4.71422 11.857 3.72276 11.857 2.49993C11.857 1.2771 10.8017 0.285645 9.49986 0.285645C8.19807 0.285645 7.14272 1.2771 7.14272 2.49993C7.14272 3.72276 8.19807 4.71422 9.49986 4.71422Z" fill="white"/>
<path d="M18.9284 2.49993C18.9284 3.72276 17.8731 4.71422 16.5713 4.71422C15.2695 4.71422 14.2141 3.72276 14.2141 2.49993C14.2141 1.2771 15.2695 0.285645 16.5713 0.285645C17.8731 0.285645 18.9284 1.2771 18.9284 2.49993Z" fill="white"/>
</svg>
