<svg width="23" height="8" viewBox="0 0 23 8" fill="none" xmlns="http://www.w3.org/2000/svg">
<path d="M9.2947 0.521114L7.81735 7.35311H9.5998L11.0772 0.521114H9.2947ZM20.7763 0.521114H19.2588C18.9216 0.521114 18.6245 0.721114 18.5041 1.01711L15.8223 7.35311H17.6931L18.0625 6.32911H20.3508L20.5675 7.35311H22.2215L20.7763 0.521114ZM18.5844 4.92911L19.5157 2.36911L20.0537 4.92911H18.5844ZM6.65313 0.521114L4.79841 5.16911L4.04367 1.21711C3.94732 0.769114 3.6101 0.513114 3.21668 0.513114H0.197738L0.157593 0.713114C0.783862 0.849114 1.48239 1.06511 1.91596 1.28911C2.17289 1.44111 2.25319 1.56111 2.33348 1.89711L3.75463 7.36111H5.63343L8.53193 0.529114H6.65313V0.521114ZM13.4217 2.42511C13.4217 2.18511 13.6625 1.91311 14.1764 1.85711C14.4333 1.83311 15.1399 1.80111 15.9348 2.16911L16.2479 0.713114C15.8143 0.561114 15.2603 0.417114 14.5859 0.417114C12.8275 0.417114 11.583 1.34511 11.5669 2.68111C11.5509 3.66511 12.4582 4.21711 13.1246 4.54511C13.8151 4.88111 14.0559 5.09711 14.0479 5.39311C14.0479 5.84911 13.4939 6.05711 12.9801 6.06511C12.0888 6.08111 11.5589 5.82511 11.1494 5.63311L10.8283 7.12911C11.2458 7.32111 12.0166 7.48111 12.8195 7.49711C14.6983 7.49711 15.9187 6.57711 15.9348 5.16111C15.9187 3.32911 13.4056 3.21711 13.4217 2.42511Z" fill="#0F2496"/>
</svg>
